     <svg width="100%" height="100%" viewBox="0 0 1440 900" fill="none" xmlns="http://www.w3.org/2000/svg">
<path fill-rule="evenodd" clip-rule="evenodd" d="M1903.29 689.203L1918 643.015H1635.04L1625.63 663.72C1592.17 738.892 1538.71 803.429 1471.07 850.289C1405.24 894.807 1327.35 917.559 1238.39 917.559C1158.34 918.403 1079.61 897.146 1010.87 856.128C942.906 815.039 887.12 756.583 849.251 686.776C810.215 613.782 789.792 532.284 789.792 449.507C789.792 366.731 810.215 285.233 849.251 212.239C887.116 142.668 942.921 84.5054 1010.87 43.7969C1079.5 2.48145 1158.29 -18.896 1238.39 -17.9376H1238.92V-272.004H1238.39C1171 -272.281 1103.9 -263.35 1038.93 -245.46C981.021 -229.866 925.429 -206.685 873.596 -176.521C765.439 -114.087 675.719 -24.1579 613.538 84.1441C602.01 104.394 591.772 124.795 582.064 145.803C578.575 153.387 575.39 160.971 572.204 168.555L286.133 829.129L-173.159 -231.885L-182.412 -253.044L-477.357 -253.044L-455.59 -203.444L125.881 1131.35L135.134 1152.67H427.652L436.905 1131.43L592.454 775.509C598.977 789.009 605.954 802.433 613.538 815.477C675.672 923.855 765.4 1013.84 873.596 1076.29C972.458 1132.07 1082.83 1164.35 1196.17 1170.64C1309.5 1176.93 1422.77 1157.05 1527.19 1112.55C1616.01 1073.57 1695.34 1015.82 1759.72 943.269C1824.94 869.639 1873.86 783.059 1903.29 689.203ZM1508.08 449.844C1508.08 598.497 1387.57 719.004 1238.92 719.004C1090.27 719.004 969.763 598.497 969.763 449.844C969.763 301.192 1090.27 180.685 1238.92 180.685C1387.57 180.685 1508.08 301.192 1508.08 449.844Z" fill="white" fill-opacity="0.05"/>
</svg>