<svg width="24" height="24" viewBox="0 0 24 24" fill="none" xmlns="http://www.w3.org/2000/svg">
<circle cx="12" cy="12" r="12" fill="#056065"/>
<path d="M9.14028 15.7264L6.01247 12.3865C5.93068 12.298 5.83327 12.2279 5.72588 12.18C5.6185 12.1321 5.50328 12.1074 5.38691 12.1074C5.27053 12.1074 5.15531 12.1321 5.04793 12.18C4.94054 12.2279 4.84313 12.298 4.76134 12.3865C4.67855 12.4738 4.61282 12.5778 4.56796 12.6925C4.5231 12.8071 4.5 12.9302 4.5 13.0544C4.5 13.1787 4.5231 13.3018 4.56796 13.4164C4.61282 13.5311 4.67855 13.6351 4.76134 13.7224L8.50578 17.7209C8.85431 18.093 9.41732 18.093 9.76585 17.7209L19.2387 7.61506C19.3214 7.52772 19.3872 7.4237 19.432 7.30904C19.4769 7.19437 19.5 7.07133 19.5 6.94706C19.5 6.82279 19.4769 6.69976 19.432 6.58509C19.3872 6.47042 19.3214 6.36641 19.2387 6.27907C19.1569 6.19066 19.0595 6.12048 18.9521 6.07257C18.8447 6.02467 18.7295 6 18.6131 6C18.4967 6 18.3815 6.02467 18.2741 6.07257C18.1667 6.12048 18.0693 6.19066 17.9875 6.27907L9.14028 15.7264Z" fill="white"/>
</svg>
