<svg width="359" height="236" viewBox="0 0 359 236" fill="none" xmlns="http://www.w3.org/2000/svg">
<path fill-rule="evenodd" clip-rule="evenodd" d="M355.953 157.044L358.356 149.498H312.126L310.589 152.881C305.122 165.163 296.387 175.707 285.336 183.363C274.581 190.636 261.856 194.353 247.321 194.353C234.243 194.491 221.38 191.018 210.148 184.317C199.044 177.604 189.93 168.053 183.743 156.648C177.365 144.722 174.028 131.407 174.028 117.882C174.028 104.358 177.365 91.0432 183.743 79.1174C189.929 67.7506 199.047 58.248 210.148 51.597C221.361 44.8469 234.234 41.3542 247.321 41.5108H247.408V0.00101472L247.321 0.00101472C236.311 -0.0440947 225.347 1.41501 214.733 4.33786C205.272 6.88569 196.189 10.6729 187.72 15.6012C170.05 25.8018 155.391 40.4945 145.232 58.189C143.348 61.4974 141.676 64.8306 140.089 68.2629C139.52 69.502 138.999 70.7411 138.479 71.9802L91.7399 179.906L16.7002 6.55585L15.1884 3.09876L-33 3.09876L-29.4438 11.2025L65.5578 229.284L67.0695 232.765H114.861L116.373 229.296L141.787 171.145C142.853 173.351 143.993 175.544 145.232 177.675C155.383 195.382 170.043 210.085 187.72 220.288C203.873 229.401 221.905 234.675 240.422 235.702C258.94 236.729 277.445 233.482 294.506 226.211C309.017 219.842 321.978 210.407 332.496 198.554C343.152 186.524 351.145 172.379 355.953 157.044ZM291.383 117.938C291.383 142.225 271.695 161.913 247.408 161.913C223.121 161.913 203.432 142.225 203.432 117.938C203.432 93.6506 223.121 73.962 247.408 73.962C271.695 73.962 291.383 93.6506 291.383 117.938Z" fill="white" fill-opacity="0.05"/>
</svg>
