<svg width="28" height="30" viewBox="0 0 28 30" fill="none" xmlns="http://www.w3.org/2000/svg">
<path d="M26.9733 18.1111V22.7778C26.9733 26.2142 24.2338 29 20.8545 29H11.7094C9.76478 29 7.93599 28.0601 6.78273 26.4679L1.49665 19.1701C0.685398 18.0502 0.888384 16.4786 1.95654 15.6097C3.04494 14.7242 4.61411 14.8131 5.59904 15.816L8.61681 18.8889V16.5556H8.62282L8.61681 13.4444L8.6435 6.44444C8.6435 5.15578 9.67081 4.11111 10.9381 4.11111C12.2053 4.11111 13.2326 5.15578 13.2326 6.44444V13.4444V3.33333C13.2326 2.04467 14.2599 1 15.5272 1C16.7944 1 17.8218 2.04467 17.8218 3.33333V13.4444V4.88889C17.8218 3.60022 18.8491 2.55556 20.1163 2.55556C21.3836 2.55556 22.4109 3.60022 22.4109 4.88889V13.4444V8C22.4109 6.71134 23.4382 5.66667 24.7054 5.66667C25.9727 5.66667 27 6.71134 27 8L26.9823 18.1111H26.9733Z" stroke="white" stroke-linecap="square" stroke-linejoin="round"/>
</svg>
