<svg width="54" height="54" viewBox="0 0 54 54" fill="none" xmlns="http://www.w3.org/2000/svg">
<g id="pan">
<path id="Combined Shape" d="M38.9733 30.1111V34.7778C38.9733 38.2142 36.2338 41 32.8545 41H23.7094C21.7648 41 19.936 40.0601 18.7827 38.4679L13.4967 31.1701C12.6854 30.0502 12.8884 28.4786 13.9565 27.6097C15.0449 26.7242 16.6141 26.8131 17.599 27.816L20.6168 30.8889V28.5556H20.6228L20.6168 25.4444L20.6435 18.4444C20.6435 17.1558 21.6708 16.1111 22.9381 16.1111C24.2053 16.1111 25.2326 17.1558 25.2326 18.4444V25.4444V15.3333C25.2326 14.0447 26.2599 13 27.5272 13C28.7944 13 29.8218 14.0447 29.8218 15.3333V25.4444V16.8889C29.8218 15.6002 30.8491 14.5556 32.1163 14.5556C33.3836 14.5556 34.4109 15.6002 34.4109 16.8889V25.4444V20C34.4109 18.7113 35.4382 17.6667 36.7054 17.6667C37.9727 17.6667 39 18.7113 39 20L38.9823 30.1111H38.9733Z" stroke="white" stroke-linecap="square" stroke-linejoin="round"/>
</g>
</svg>
